<?xml version="1.0" encoding="UTF-8"?>
<svg id="Layer_1" data-name="Layer 1" xmlns="http://www.w3.org/2000/svg" viewBox="0 0 1920 1080">
  <defs>
    <style>
      .cls-1 {
        fill: #d4a017;
      }

      .cls-2 {
        fill: #f6ead3;
      }

      .cls-3 {
        fill: #fff;
      }
    </style>
  </defs>
  <rect class="cls-3" width="1920" height="1080"/>
  <g>
    <g>
      <g id="_0iRukr" data-name="0iRukr">
        <g>
          <path class="cls-2" d="M546.24,512.42c3.82-1.27,5.77-.27,9.04,1.81l199.65,127.04c2.32,1.48,4.04,1.16,4.51.74.47-.42,1.47-2.21,1.47-3.21l-.04-51.54-243.86-187.61c-2.9-2.23-6.76-2.75-10.06-1.03l-358.27,186.61-.2,55.02c0,2.16,2.4,3.62,4.85,3.13l392.91-130.96Z"/>
          <path class="cls-2" d="M487.89,342.12c3.52-2.15,6.28-2.19,10.02.75l255.96,201.1c3.52,2.77,4.55,2.22,4.97,1.96.67-.42,2.1-2.14,2.09-3.06l-.28-51.4L461.35,229.57c-4.45-3.89-8.94-3.75-13.37.13L151.89,488.78c-2.08,1.82-3.37,5.01-3.37,7.35l.05,48.24c0,1.29,3.33,3.05,4.85,2.12l334.47-204.38Z"/>
          <path class="cls-2" d="M607.23,683.11l148.47,55.53c1.02.38,3.6.4,4.12-.19.52-.59,1.19-2.45,1.18-3.38l-.29-52.35-188.24-112.92c-1.58-.95-5.22-1.13-7.35-.55l-416.36,113.56.42,57.64,458.06-57.34Z"/>
          <path class="cls-2" d="M156.6,835.98h596.74c4.46,0,6.52-3.89,7.69-7.27l-.28-50.24-133.65-38.27-478.41,38.3-.2,48.98c.74,3.77,2.03,8.5,8.12,8.5Z"/>
        </g>
      </g>
      <g id="_0iRukr-2" data-name="0iRukr">
        <g>
          <path class="cls-1" d="M570.88,528.26c4.06-1.35,6.12-.29,9.59,1.92l212.01,134.9c2.47,1.57,4.29,1.24,4.79.79.5-.44,1.56-2.34,1.56-3.41l-.04-54.73-258.96-199.23c-3.08-2.37-7.18-2.92-10.68-1.09l-380.46,198.16-.21,58.43c0,2.3,2.55,3.85,5.15,3.33l417.24-139.07Z"/>
          <path class="cls-1" d="M508.91,347.42c3.74-2.28,6.67-2.33,10.64.8l271.81,213.55c3.74,2.94,4.83,2.36,5.28,2.08.71-.44,2.23-2.27,2.22-3.25l-.29-54.59L480.73,227.89c-4.72-4.13-9.49-3.98-14.2.14L152.1,503.16c-2.21,1.93-3.58,5.32-3.58,7.81l.05,51.23c0,1.37,3.54,3.24,5.15,2.25l355.18-217.03Z"/>
          <path class="cls-1" d="M635.63,709.52l157.66,58.97c1.09.41,3.82.43,4.37-.2s1.26-2.6,1.26-3.59l-.31-55.59-199.9-119.92c-1.68-1.01-5.55-1.21-7.81-.59l-442.15,120.59.45,61.21,486.43-60.89Z"/>
          <path class="cls-1" d="M157.1,871.85h633.69c4.73,0,6.93-4.13,8.17-7.72l-.3-53.35-141.93-40.64-508.04,40.67-.21,52.02c.79,4,2.16,9.03,8.62,9.03Z"/>
        </g>
      </g>
    </g>
    <g>
      <path d="M940.11,679.76l-47.34-127.26h20.88l39.78,111.06,39.6-111.06h20.52l-46.98,127.26h-26.46Z"/>
      <path d="M1059.81,680.84c-9.96,0-18.3-2.04-25.02-6.12-6.72-4.08-11.79-9.75-15.21-17.01-3.42-7.26-5.13-15.63-5.13-25.11s1.77-18.06,5.31-25.38c3.54-7.32,8.7-13.08,15.48-17.28,6.78-4.2,14.97-6.3,24.57-6.3,7.32,0,13.68,1.35,19.08,4.05s9.87,6.33,13.41,10.89c3.54,4.56,6.15,9.63,7.83,15.21,1.68,5.58,2.4,11.37,2.16,17.37,0,1.32-.06,2.58-.18,3.78-.12,1.2-.24,2.46-.36,3.78h-68.58c.36,4.8,1.59,9.18,3.69,13.14,2.1,3.96,5.07,7.11,8.91,9.45,3.84,2.34,8.58,3.51,14.22,3.51,3.12,0,6.15-.39,9.09-1.17,2.94-.78,5.58-2.04,7.92-3.78,2.34-1.74,3.99-3.99,4.95-6.75h18.72c-1.56,6.36-4.35,11.61-8.37,15.75-4.02,4.14-8.88,7.17-14.58,9.09-5.7,1.92-11.67,2.88-17.91,2.88ZM1033.53,623.97h50.4c-.12-4.68-1.2-8.85-3.24-12.51-2.04-3.66-4.86-6.54-8.46-8.64-3.6-2.1-7.92-3.15-12.96-3.15-5.52,0-10.11,1.14-13.77,3.42-3.66,2.28-6.48,5.25-8.46,8.91-1.98,3.66-3.15,7.65-3.51,11.97Z"/>
      <path d="M1121.36,679.76v-127.26h18.54v127.26h-18.54Z"/>
      <path d="M1215.68,679.76v-127.26h19.08v55.98h63.72v-55.98h19.08v127.26h-19.08v-53.82h-63.72v53.82h-19.08Z"/>
      <path d="M1386.13,680.84c-9.84,0-18.18-2.01-25.02-6.03-6.84-4.02-12.03-9.69-15.57-17.01-3.54-7.32-5.31-15.78-5.31-25.38s1.8-18.21,5.4-25.47c3.6-7.26,8.82-12.96,15.66-17.1,6.84-4.14,15.18-6.21,25.02-6.21s18.18,2.07,25.02,6.21c6.84,4.14,12,9.87,15.48,17.19,3.48,7.32,5.22,15.84,5.22,25.56s-1.77,17.88-5.31,25.2c-3.54,7.32-8.7,12.99-15.48,17.01-6.78,4.02-15.15,6.03-25.11,6.03ZM1386.13,664.28c6.48,0,11.73-1.44,15.75-4.32,4.02-2.88,6.99-6.75,8.91-11.61,1.92-4.86,2.88-10.17,2.88-15.93s-.96-11.04-2.88-15.84c-1.92-4.8-4.89-8.67-8.91-11.61-4.02-2.94-9.27-4.41-15.75-4.41s-11.58,1.47-15.66,4.41c-4.08,2.94-7.05,6.81-8.91,11.61-1.86,4.8-2.79,10.08-2.79,15.84s.93,11.22,2.79,16.02c1.86,4.8,4.83,8.64,8.91,11.52,4.08,2.88,9.3,4.32,15.66,4.32Z"/>
      <path d="M1451.11,679.76v-94.86h17.46l1.08,11.16c2.16-3.12,4.59-5.55,7.29-7.29,2.7-1.74,5.61-3.03,8.73-3.87,3.12-.84,6.3-1.26,9.54-1.26,6.36,0,11.61,1.32,15.75,3.96,4.14,2.64,7.35,6.24,9.63,10.8,2.28-3.24,4.86-5.97,7.74-8.19,2.88-2.22,6.06-3.87,9.54-4.95,3.48-1.08,7.2-1.62,11.16-1.62,7.08,0,12.81,1.53,17.19,4.59,4.38,3.06,7.56,7.17,9.54,12.33,1.98,5.16,2.97,11.1,2.97,17.82v61.38h-18.72v-54c0-2.88-.12-5.76-.36-8.64-.24-2.88-.93-5.61-2.07-8.19-1.14-2.58-2.76-4.68-4.86-6.3-2.1-1.62-5.07-2.43-8.91-2.43s-6.81.84-9.27,2.52c-2.46,1.68-4.44,3.93-5.94,6.75-1.5,2.82-2.58,5.85-3.24,9.09-.66,3.24-.99,6.48-.99,9.72v51.48h-18.72v-54.18c0-2.76-.12-5.58-.36-8.46-.24-2.88-.84-5.61-1.8-8.19-.96-2.58-2.55-4.68-4.77-6.3-2.22-1.62-5.19-2.43-8.91-2.43-5.4,0-9.57,1.53-12.51,4.59-2.94,3.06-4.95,6.78-6.03,11.16-1.08,4.38-1.62,8.55-1.62,12.51v51.3h-18.54Z"/>
      <path d="M1642.26,680.84c-9.96,0-18.3-2.04-25.02-6.12-6.72-4.08-11.79-9.75-15.21-17.01-3.42-7.26-5.13-15.63-5.13-25.11s1.77-18.06,5.31-25.38c3.54-7.32,8.7-13.08,15.48-17.28,6.78-4.2,14.97-6.3,24.57-6.3,7.32,0,13.68,1.35,19.08,4.05s9.87,6.33,13.41,10.89c3.54,4.56,6.15,9.63,7.83,15.21,1.68,5.58,2.4,11.37,2.16,17.37,0,1.32-.06,2.58-.18,3.78-.12,1.2-.24,2.46-.36,3.78h-68.58c.36,4.8,1.59,9.18,3.69,13.14,2.1,3.96,5.07,7.11,8.91,9.45,3.84,2.34,8.58,3.51,14.22,3.51,3.12,0,6.15-.39,9.09-1.17,2.94-.78,5.58-2.04,7.92-3.78,2.34-1.74,3.99-3.99,4.95-6.75h18.72c-1.56,6.36-4.35,11.61-8.37,15.75-4.02,4.14-8.88,7.17-14.58,9.09-5.7,1.92-11.67,2.88-17.91,2.88ZM1615.98,623.97h50.4c-.12-4.68-1.2-8.85-3.24-12.51-2.04-3.66-4.86-6.54-8.46-8.64-3.6-2.1-7.92-3.15-12.96-3.15-5.52,0-10.11,1.14-13.77,3.42-3.66,2.28-6.48,5.25-8.46,8.91-1.98,3.66-3.15,7.65-3.51,11.97Z"/>
      <path d="M1739.28,680.84c-4.44,0-8.88-.42-13.32-1.26-4.44-.84-8.58-2.34-12.42-4.5-3.84-2.16-7.08-5.07-9.72-8.73-2.64-3.66-4.32-8.19-5.04-13.59h18.9c.96,2.88,2.67,5.22,5.13,7.02,2.46,1.8,5.22,3.12,8.28,3.96,3.06.84,6.09,1.26,9.09,1.26,1.8,0,3.81-.12,6.03-.36,2.22-.24,4.35-.78,6.39-1.62,2.04-.84,3.72-2.07,5.04-3.69,1.32-1.62,1.98-3.81,1.98-6.57,0-2.16-.57-3.96-1.71-5.4-1.14-1.44-2.7-2.61-4.68-3.51-1.98-.9-4.35-1.59-7.11-2.07-5.4-1.2-11.19-2.37-17.37-3.51-6.18-1.14-11.61-3.15-16.29-6.03-1.68-1.08-3.18-2.31-4.5-3.69-1.32-1.38-2.46-2.97-3.42-4.77-.96-1.8-1.68-3.72-2.16-5.76-.48-2.04-.72-4.26-.72-6.66,0-4.92.99-9.12,2.97-12.6,1.98-3.48,4.71-6.33,8.19-8.55,3.48-2.22,7.44-3.87,11.88-4.95,4.44-1.08,9.12-1.62,14.04-1.62,6.36,0,12.12,1.02,17.28,3.06,5.16,2.04,9.42,5.04,12.78,9,3.36,3.96,5.34,8.94,5.94,14.94h-17.46c-.72-3.24-2.79-5.85-6.21-7.83s-7.71-2.97-12.87-2.97c-1.8,0-3.75.12-5.85.36-2.1.24-4.11.78-6.03,1.62-1.92.84-3.48,2.01-4.68,3.51-1.2,1.5-1.8,3.45-1.8,5.85s.57,4.2,1.71,5.76c1.14,1.56,2.82,2.82,5.04,3.78,2.22.96,4.77,1.74,7.65,2.34,4.08.96,8.49,1.86,13.23,2.7,4.74.84,8.61,1.74,11.61,2.7,3.96,1.08,7.35,2.64,10.17,4.68,2.82,2.04,4.98,4.62,6.48,7.74,1.5,3.12,2.25,6.9,2.25,11.34,0,5.76-1.14,10.47-3.42,14.13-2.28,3.66-5.31,6.57-9.09,8.73-3.78,2.16-7.98,3.66-12.6,4.5-4.62.84-9.15,1.26-13.59,1.26Z"/>
      <path d="M958.29,845.47c-13.2,0-24.21-2.76-33.03-8.28-8.82-5.52-15.45-13.17-19.89-22.95-4.44-9.78-6.66-20.97-6.66-33.57,0-9.48,1.23-18.21,3.69-26.19,2.46-7.98,6.15-14.91,11.07-20.79,4.92-5.88,11.07-10.41,18.45-13.59,7.38-3.18,15.93-4.77,25.65-4.77s17.82,1.47,25.02,4.41c7.2,2.94,13.17,7.17,17.91,12.69,4.74,5.52,7.95,12.18,9.63,19.98h-20.16c-1.08-4.2-3.09-7.74-6.03-10.62-2.94-2.88-6.6-5.1-10.98-6.66-4.38-1.56-9.33-2.34-14.85-2.34-7.2,0-13.32,1.26-18.36,3.78-5.04,2.52-9.15,5.97-12.33,10.35-3.18,4.38-5.49,9.45-6.93,15.21s-2.16,11.88-2.16,18.36c0,8.64,1.38,16.56,4.14,23.76,2.76,7.2,7.08,12.96,12.96,17.28,5.88,4.32,13.56,6.48,23.04,6.48,7.32,0,13.62-1.29,18.9-3.87,5.28-2.58,9.42-6.3,12.42-11.16,3-4.86,4.56-10.77,4.68-17.73h-39.42v-16.74h58.14v9.36c0,11.64-2.16,21.78-6.48,30.42-4.32,8.64-10.56,15.33-18.72,20.07-8.16,4.74-18.06,7.11-29.7,7.11Z"/>
      <path d="M1032.45,844.03v-127.26h18.54v127.26h-18.54Z"/>
      <path d="M1116.15,845.11c-9.84,0-18.18-2.01-25.02-6.03-6.84-4.02-12.03-9.69-15.57-17.01-3.54-7.32-5.31-15.78-5.31-25.38s1.8-18.21,5.4-25.47c3.6-7.26,8.82-12.96,15.66-17.1s15.18-6.21,25.02-6.21,18.18,2.07,25.02,6.21,12,9.87,15.48,17.19c3.48,7.32,5.22,15.84,5.22,25.56s-1.77,17.88-5.31,25.2c-3.54,7.32-8.7,12.99-15.48,17.01-6.78,4.02-15.15,6.03-25.11,6.03ZM1116.15,828.55c6.48,0,11.73-1.44,15.75-4.32,4.02-2.88,6.99-6.75,8.91-11.61,1.92-4.86,2.88-10.17,2.88-15.93s-.96-11.04-2.88-15.84c-1.92-4.8-4.89-8.67-8.91-11.61-4.02-2.94-9.27-4.41-15.75-4.41s-11.58,1.47-15.66,4.41c-4.08,2.94-7.05,6.81-8.91,11.61-1.86,4.8-2.79,10.08-2.79,15.84s.93,11.22,2.79,16.02c1.86,4.8,4.83,8.64,8.91,11.52,4.08,2.88,9.3,4.32,15.66,4.32Z"/>
      <path d="M1229,845.11c-3.96,0-7.71-.42-11.25-1.26-3.54-.84-6.84-2.19-9.9-4.05-3.06-1.86-5.79-4.17-8.19-6.93l-.54,11.16h-18v-127.26h18.54v45.18c3.36-4.56,7.86-8.04,13.5-10.44,5.64-2.4,11.46-3.6,17.46-3.6,9.48,0,17.28,2.13,23.4,6.39,6.12,4.26,10.65,10.02,13.59,17.28,2.94,7.26,4.41,15.51,4.41,24.75s-1.56,17.37-4.68,24.75c-3.12,7.38-7.83,13.23-14.13,17.55-6.3,4.32-14.37,6.48-24.21,6.48ZM1227.02,828.73c6.6,0,11.82-1.5,15.66-4.5,3.84-3,6.6-6.96,8.28-11.88,1.68-4.92,2.52-10.2,2.52-15.84s-.87-11.22-2.61-16.02c-1.74-4.8-4.56-8.64-8.46-11.52-3.9-2.88-9.09-4.32-15.57-4.32-5.88,0-10.86,1.59-14.94,4.77-4.08,3.18-7.17,7.23-9.27,12.15-2.1,4.92-3.15,10.02-3.15,15.3s.93,10.71,2.79,15.57c1.86,4.86,4.83,8.79,8.91,11.79,4.08,3,9.36,4.5,15.84,4.5Z"/>
      <path d="M1321.34,845.11c-4.32,0-8.49-.57-12.51-1.71-4.02-1.14-7.59-2.88-10.71-5.22-3.12-2.34-5.61-5.28-7.47-8.82-1.86-3.54-2.79-7.71-2.79-12.51,0-5.76,1.11-10.53,3.33-14.31,2.22-3.78,5.19-6.72,8.91-8.82,3.72-2.1,8.01-3.6,12.87-4.5,4.86-.9,9.93-1.35,15.21-1.35h23.22c0-4.68-.72-8.79-2.16-12.33-1.44-3.54-3.69-6.3-6.75-8.28-3.06-1.98-7.11-2.97-12.15-2.97-3,0-5.85.33-8.55.99-2.7.66-5.01,1.71-6.93,3.15-1.92,1.44-3.24,3.36-3.96,5.76h-19.44c.72-4.56,2.34-8.49,4.86-11.79,2.52-3.3,5.64-6.03,9.36-8.19,3.72-2.16,7.71-3.75,11.97-4.77,4.26-1.02,8.61-1.53,13.05-1.53,13.68,0,23.55,3.99,29.61,11.97,6.06,7.98,9.09,18.93,9.09,32.85v51.3h-16.02l-.72-12.06c-2.76,3.72-6.03,6.54-9.81,8.46-3.78,1.92-7.53,3.18-11.25,3.78-3.72.6-7.14.9-10.26.9ZM1324.22,829.46c5.4,0,10.14-.93,14.22-2.79,4.08-1.86,7.26-4.56,9.54-8.1,2.28-3.54,3.42-7.71,3.42-12.51v-3.96h-16.92c-3.48,0-6.87.09-10.17.27-3.3.18-6.3.66-9,1.44-2.7.78-4.86,2.07-6.48,3.87-1.62,1.8-2.43,4.38-2.43,7.74s.84,5.88,2.52,7.92c1.68,2.04,3.9,3.57,6.66,4.59,2.76,1.02,5.64,1.53,8.64,1.53Z"/>
      <path d="M1391.71,844.03v-127.26h18.54v127.26h-18.54Z"/>
    </g>
  </g>
</svg>